<?xml version="1.0" encoding="UTF-8"?>
<svg version="1.1" xmlns="http://www.w3.org/2000/svg" width="1950" height="225">
<path d="M0 0 C1.90471069 0.01135986 1.90471069 0.01135986 3.84790039 0.02294922 C24.63732922 0.38625705 42.21197886 6.82224398 58.75 19.4375 C59.50023437 20.00210938 60.25046875 20.56671875 61.0234375 21.1484375 C66.92961924 25.93407883 71.70190557 32.02801716 75.75 38.4375 C75.75 39.4275 75.75 40.4175 75.75 41.4375 C74.97398437 41.86571045 74.19796875 42.2939209 73.3984375 42.73510742 C70.4825788 44.34548434 67.56784149 45.95785642 64.65380859 47.5715332 C63.3993603 48.26567842 62.14448732 48.95905678 60.88916016 49.65161133 C59.07077874 50.65498115 57.2538821 51.66098474 55.4375 52.66796875 C54.84904297 52.992883 54.26058594 53.31779724 53.65429688 53.65255737 C50.38249378 55.47382643 47.23422912 57.40368445 44.125 59.48828125 C40.75 61.4375 40.75 61.4375 38.64428711 61.16162109 C36.13240608 60.20141499 35.05454347 58.78691052 33.3125 56.75 C26.65722067 49.78138361 16.80714733 45.44672725 7.15234375 45.19921875 C-7.0329341 44.81361191 -7.0329341 44.81361191 -20.25 49.4375 C-21.0440625 49.87320313 -21.838125 50.30890625 -22.65625 50.7578125 C-32.7755386 56.93057854 -39.02791591 65.91360124 -42.36328125 77.20703125 C-45.32416415 89.75294598 -43.98550687 103.73195175 -37.82421875 115.05859375 C-35.09660689 119.35088219 -32.04545083 123.03132618 -28.25 126.4375 C-27.54875 127.0975 -26.8475 127.7575 -26.125 128.4375 C-13.03753696 137.54182212 3.19688747 138.4984528 18.58203125 135.75390625 C29.45661508 132.3896255 34.31883129 127.08425306 40.75 117.4375 C20.95 116.9425 20.95 116.9425 0.75 116.4375 C0.75 103.5675 0.75 90.6975 0.75 77.4375 C29.79 77.4375 58.83 77.4375 88.75 77.4375 C88.75 107.92665377 87.02762777 134.60980735 64.75 157.4375 C42.45623513 177.38455278 16.61267907 180.81566852 -12.25 179.4375 C-35.28230443 177.12222258 -55.49577046 164.94957524 -70.25 147.4375 C-81.54868369 132.72246396 -88.55319686 115.06940994 -89.25 96.4375 C-89.28996094 95.53128906 -89.32992188 94.62507813 -89.37109375 93.69140625 C-89.98666685 66.42513872 -80.39463533 43.42856335 -62.0625 23.75 C-45.0857583 7.51916083 -23.31599731 -0.19605043 0 0 Z " fill="#FFFFFF" transform="translate(1541.25,23.5625)"/>
<path d="M0 0 C11.88 0 23.76 0 36 0 C44.78811533 9.20659701 44.78811533 9.20659701 46.49609375 13.51953125 C48.98776801 19.21176161 52.27542488 23.94187117 55.9375 28.9375 C57.11695242 30.61069943 58.29273063 32.28649481 59.46484375 33.96484375 C60.34052002 35.21177002 60.34052002 35.21177002 61.23388672 36.48388672 C64.1602186 40.65291856 67.07980968 44.82666518 70 49 C73.63942397 54.20006093 77.2796834 59.39953334 80.921875 64.59765625 C81.56253906 65.51224609 82.20320313 66.42683594 82.86328125 67.36914062 C84.0947772 69.12714571 85.32653606 70.88496667 86.55859375 72.64257812 C87.38810547 73.8269043 87.38810547 73.8269043 88.234375 75.03515625 C88.72131836 75.7300415 89.20826172 76.42492676 89.70996094 77.14086914 C90.82509166 78.74793206 91.91497356 80.37246033 93 82 C93.33 54.94 93.66 27.88 94 0 C108.85 0 123.7 0 139 0 C139 56.76 139 113.52 139 172 C104 172 104 172 97 165.5 C95.94336612 163.40437548 94.88638418 161.30488299 93.97509766 159.14208984 C92.34068843 155.55162752 89.99092439 152.49772612 87.6875 149.3125 C86.76958993 147.97659389 85.85561536 146.63797632 84.9453125 145.296875 C77.33140167 134.15887047 69.52565773 123.15041513 61.75 112.125 C61.09849976 111.20086304 61.09849976 111.20086304 60.43383789 110.25805664 C55.65032661 103.48531007 50.81965169 96.74751237 46 90 C45.67 117.06 45.34 144.12 45 172 C30.15 172 15.3 172 0 172 C0 115.24 0 58.48 0 0 Z " fill="#FFFFFF" transform="translate(1295,28)"/>
<path d="M0 0 C19.8 0 39.6 0 60 0 C60 19.47 60 38.94 60 59 C79.8 59 99.6 59 120 59 C120 78.8 120 98.6 120 119 C100.2 119 80.4 119 60 119 C60 138.14 60 157.28 60 177 C40.2 177 20.4 177 0 177 C0 157.86 0 138.72 0 119 C-19.47 119 -38.94 119 -59 119 C-59 99.2 -59 79.4 -59 59 C-39.53 59 -20.06 59 0 59 C0 39.53 0 20.06 0 0 Z " fill="#FFFFFF" transform="translate(954,25)"/>
<path d="M0 0 C18.15 0 36.3 0 55 0 C64.40056027 27.38764897 73.61802185 54.82360913 82.64685059 82.33544922 C85.08643418 89.76770684 87.53009477 97.19862479 89.97385788 104.62950897 C90.8705581 107.35741607 91.76610651 110.08569932 92.66152954 112.81402588 C95.67301967 121.98220949 98.71214693 131.14019499 101.79638672 140.28417969 C102.40856639 142.10332828 103.02070399 143.92249103 103.63279724 145.7416687 C104.7859852 149.16823719 105.94698791 152.5920218 107.11244202 156.01443481 C107.6298531 157.5497288 108.14699423 159.0851138 108.66381836 160.62060547 C108.90229681 161.31360622 109.14077526 162.00660698 109.38648033 162.72060776 C110.49809497 166.04459367 111 168.44213693 111 172 C95.16 172 79.32 172 63 172 C60.69 164.41 58.38 156.82 56 149 C37.19 148.67 18.38 148.34 -1 148 C-1.33 150.31 -1.66 152.62 -2 155 C-3.65 160.61 -5.3 166.22 -7 172 C-23.17 172 -39.34 172 -56 172 C-54.11452714 165.0865995 -52.1993218 158.29740201 -49.9440918 151.51342773 C-49.65402756 150.63318939 -49.36396332 149.75295105 -49.06510925 148.84603882 C-48.11253437 145.95765035 -47.15592537 143.07061604 -46.19921875 140.18359375 C-45.51936558 138.12524439 -44.83974925 136.06681679 -44.16035461 134.00831604 C-42.36814449 128.58046222 -40.57243581 123.15377192 -38.77606201 117.72729492 C-37.35223654 113.42428438 -35.93088472 109.12045897 -34.50968742 104.81657982 C-28.72159707 87.28867024 -22.9295029 69.76211066 -17.08056641 52.25439453 C-16.76662965 51.31434728 -16.45269289 50.37430002 -16.1292429 49.40576649 C-14.66986419 45.0366828 -13.20876386 40.66819086 -11.74406433 36.30088806 C-7.70845964 24.23425478 -3.85912856 12.12868975 0 0 Z M27 54 C24.9122637 61.02298169 22.82598185 68.04639367 20.74157715 75.07036495 C19.77375157 78.33154852 18.80541777 81.5925794 17.8359375 84.85327148 C16.72246117 88.59835172 15.61116826 92.34407803 14.5 96.08984375 C14.15001953 97.26586655 13.80003906 98.44188934 13.43945312 99.65354919 C13.11912109 100.73459427 12.79878906 101.81563934 12.46875 102.92944336 C12.18451172 103.88652695 11.90027344 104.84361053 11.60742188 105.82969666 C10.95507972 107.78488186 10.95507972 107.78488186 11 109 C21.89 109 32.78 109 44 109 C42.51782226 101.3306619 42.51782226 101.3306619 40.61132812 93.84155273 C40.35766479 92.96462265 40.10400146 92.08769257 39.84265137 91.18418884 C39.57488892 90.27649246 39.30712646 89.36879608 39.03125 88.43359375 C38.75027466 87.47348892 38.46929932 86.51338409 38.17980957 85.52418518 C37.59039625 83.51602796 36.9986948 81.50854101 36.40478516 79.50170898 C35.49397667 76.41710098 34.59634597 73.32884538 33.69921875 70.24023438 C33.12319047 68.28362005 32.5463955 66.32723124 31.96875 64.37109375 C31.70098755 63.44517929 31.4332251 62.51926483 31.15734863 61.56529236 C30.9036853 60.71673172 30.65002197 59.86817108 30.38867188 58.99389648 C30.05796692 57.86998756 30.05796692 57.86998756 29.72058105 56.72337341 C29.1346941 54.7953966 29.1346941 54.7953966 27 54 Z " fill="#FFFFFF" transform="translate(1684,28)"/>
<path d="M0 0 C94.71746965 0 94.71746965 0 112.59375 17.32421875 C126.09194872 32.33439103 128.99931521 48.86326117 128.19091797 68.37548828 C127.16224977 82.51638747 120.05117741 95.04254014 109.875 104.67578125 C90.33613043 120.47147065 69.8327969 120 45 120 C45 137.16 45 154.32 45 172 C30.15 172 15.3 172 0 172 C0 115.24 0 58.48 0 0 Z M45 43 C45 54.55 45 66.1 45 78 C49.9190625 78.061875 49.9190625 78.061875 54.9375 78.125 C55.95191162 78.14320801 56.96632324 78.16141602 58.01147461 78.18017578 C65.0811748 78.22271061 72.19140211 78.25908961 77.875 73.6875 C81.81912998 68.69933562 84.19336432 64.5502164 84 58 C82.83946698 52.38384913 80.4476884 48.68832697 76 45 C72.54655954 42.80938478 69.75042824 42.76650539 65.703125 42.8046875 C64.07358887 42.81218018 64.07358887 42.81218018 62.41113281 42.81982422 C61.03795898 42.83803223 59.66478516 42.85624023 58.25 42.875 C53.8775 42.91625 49.505 42.9575 45 43 Z " fill="#FFFFFF" transform="translate(1806,28)"/>
<path d="M0 0 C1.38251953 0.45052734 1.38251953 0.45052734 2.79296875 0.91015625 C14.79769014 5.20952159 24.06843495 13.19370234 33 22 C33.74378906 22.73089844 34.48757813 23.46179688 35.25390625 24.21484375 C50.53923202 40.27789647 56.46914938 62.31792161 55.97680664 84.07373047 C55.09585119 105.06877903 48.43436619 123.45339669 34 139 C33.2678125 139.80050781 32.535625 140.60101563 31.78125 141.42578125 C18.64448189 155.1870084 0.21937018 165.04226719 -18.99755859 166.17700195 C-47.61731745 166.73360814 -70.21145527 162.00978487 -91.625 141.8125 C-108.91486814 123.78031194 -115.69731165 102.14118412 -115.46826172 77.59936523 C-114.81555607 54.21302447 -105.54405858 33.50011363 -88.53515625 17.19140625 C-64.2741676 -3.77995682 -30.51352667 -10.76728841 0 0 Z M-74 42 C-86.11649102 57.29184729 -88.3403103 73.04070162 -87 92 C-86.29910168 96.56767512 -84.82439935 100.76207235 -83 105 C-82.566875 106.09248047 -82.566875 106.09248047 -82.125 107.20703125 C-75.7154645 121.71432812 -63.23607742 131.08391081 -49 137 C-33.96002337 141.69122587 -16.99311418 140.22623461 -2.90234375 133.52734375 C11.13619848 126.02000701 21.18331736 113.82467045 25.9375 98.625 C30.01656439 80.41584327 28.04389895 62.90284001 18 47 C8.74845673 34.69274627 -3.62936532 25.69015221 -19 23 C-40.82536555 21.06486178 -58.63183595 25.62738079 -74 42 Z " fill="#FFFFFF" transform="translate(403,33)"/>
<path d="M0 0 C88.87193804 0 88.87193804 0 103.75 14.125 C114.92206366 25.91950721 119.53444033 38.58272601 119.42211914 54.63574219 C118.95657807 68.2448052 113.13471211 80.11177165 104.06640625 90.11328125 C100.13390375 93.70382701 95.57027841 96.30732005 91 99 C90.01 99.66 89.02 100.32 88 101 C96.21120826 115.70890294 104.6499109 130.26105961 113.2734375 144.73046875 C114.51565024 146.82029749 115.75783761 148.91014132 117 151 C117.67063477 152.12100098 118.34126953 153.24200195 119.03222656 154.39697266 C119.99467285 156.01998291 119.99467285 156.01998291 120.9765625 157.67578125 C121.55744629 158.65071533 122.13833008 159.62564941 122.73681641 160.63012695 C124 163 124 163 124 165 C113.77 165 103.54 165 93 165 C86.4375 153.625 86.4375 153.625 84.23876953 149.8137207 C81.10542678 144.38240719 77.9719535 138.95116928 74.83769226 133.52038574 C73.81696091 131.75173525 72.79628902 129.98305046 71.77563477 128.21435547 C70.49238672 125.99065465 69.20902561 123.76701907 67.92553711 121.54345703 C67.33780518 120.52493652 66.75007324 119.50641602 66.14453125 118.45703125 C65.29737549 117.03910278 65.29737549 117.03910278 64.43310547 115.5925293 C63 113 63 113 62.24267578 110.74536133 C61.57486354 108.47447367 61.57486354 108.47447367 59 106 C53.74759634 104.97684599 48.5866223 105.02363582 43.25 105.0625 C35.70125 105.0315625 35.70125 105.0315625 28 105 C28 124.8 28 144.6 28 165 C18.76 165 9.52 165 0 165 C0 110.55 0 56.1 0 0 Z M28 26 C28 43.82 28 61.64 28 80 C36.848125 80.061875 36.848125 80.061875 45.875 80.125 C47.71562012 80.14320801 49.55624023 80.16141602 51.45263672 80.18017578 C69.06509354 80.43643901 69.06509354 80.43643901 84 72 C90.02929683 63.96938195 91.95056577 56.9677383 91 47 C88.90058498 39.0245049 85.15410521 32.70828714 77.99438477 28.36254883 C72.70962409 25.50689366 68.18821995 25.34836381 62.27734375 25.51171875 C60.96401062 25.51927185 60.96401062 25.51927185 59.62414551 25.52697754 C56.39492421 25.55287627 53.16617457 25.622681 49.9375 25.6875 C39.0784375 25.8421875 39.0784375 25.8421875 28 26 Z " fill="#FFFFFF" transform="translate(154,32)"/>
<path d="M0 0 C1.38251953 0.45052734 1.38251953 0.45052734 2.79296875 0.91015625 C18.35647104 6.48406172 34.08910459 19.38782622 42 34 C42 34.66 42 35.32 42 36 C38.23857526 38.2039911 34.46447871 40.3852886 30.6875 42.5625 C29.61564453 43.19091797 28.54378906 43.81933594 27.43945312 44.46679688 C26.41142578 45.05654297 25.38339844 45.64628906 24.32421875 46.25390625 C23.37635498 46.80377197 22.42849121 47.3536377 21.4519043 47.92016602 C19 49 19 49 16 48 C14.74609375 46.21484375 14.74609375 46.21484375 13.4375 43.9375 C6.59303303 33.33363369 -4.66210913 27.27196306 -16.7421875 24.39697266 C-28.93467042 22.25326837 -42.68143896 22.96952842 -54 28 C-54.94875 28.4125 -55.8975 28.825 -56.875 29.25 C-70.92389257 36.11834748 -79.1912435 48.0399656 -84.23828125 62.45703125 C-87.8824164 74.62283628 -87.97195914 91.26692976 -83 103 C-82.5978125 103.97839844 -82.195625 104.95679688 -81.78125 105.96484375 C-75.55846633 119.67225334 -65.4425706 128.8060675 -51.90625 134.921875 C-38.6295313 139.84710936 -22.09680877 140.21115364 -8.7578125 135.265625 C2.60858821 130.04931646 10.51601212 123.68789211 17 113 C22.85014103 114.59200559 27.70518486 117.55736873 32.875 120.625 C33.75414062 121.140625 34.63328125 121.65625 35.5390625 122.1875 C37.6957056 123.45335573 39.84917988 124.72428407 42 126 C36.86493918 140.18963665 23.03662756 151.21363119 10 158 C-10.88734764 167.61733929 -37.09200053 170.41408458 -59.08056641 162.74072266 C-69.01117741 158.90843141 -77.95788994 154.0200919 -86 147 C-86.8971875 146.29810547 -86.8971875 146.29810547 -87.8125 145.58203125 C-103.43421025 133.13348089 -111.66875474 114.2452218 -115 95 C-115.9157734 80.07857768 -116.14495093 65.17258222 -111 51 C-110.56429687 49.78441406 -110.12859375 48.56882813 -109.6796875 47.31640625 C-106.5241012 39.30673502 -102.41535963 32.6658732 -97 26 C-96.43410156 25.28199219 -95.86820313 24.56398438 -95.28515625 23.82421875 C-72.95622441 -3.23319278 -32.42991921 -11.4435246 0 0 Z " fill="#FFFFFF" transform="translate(831,33)"/>
<path d="M0 0 C32.67 0 65.34 0 99 0 C99 8.91 99 17.82 99 27 C75.57 27 52.14 27 28 27 C28 40.53 28 54.06 28 68 C49.45 68 70.9 68 93 68 C93 76.91 93 85.82 93 95 C71.55 95 50.1 95 28 95 C28 109.19 28 123.38 28 138 C51.76 138 75.52 138 100 138 C100 146.91 100 155.82 100 165 C67 165 34 165 0 165 C0 110.55 0 56.1 0 0 Z " fill="#FFFFFF" transform="translate(602,32)"/>
<path d="M0 0 C14.85 0 29.7 0 45 0 C45 42.57 45 85.14 45 129 C64.14 129 83.28 129 103 129 C103 142.86 103 156.72 103 171 C69.01 171 35.02 171 0 171 C0 114.57 0 58.14 0 0 Z " fill="#FFFFFF" transform="translate(1106,28)"/>
<path d="M0 0 C84.53566754 0 84.53566754 0 100.34375 14.2421875 C111.27930395 25.84831787 115.84204573 39.25722424 116 55 C114.8658382 71.58036536 108.80556257 84.08691956 96.91796875 95.6328125 C81.31393035 108.29151032 62.81253638 108.17005276 43.75 108.0625 C35.95375 108.0315625 35.95375 108.0315625 28 108 C28 126.48 28 144.96 28 164 C18.76 164 9.52 164 0 164 C0 109.88 0 55.76 0 0 Z M28 26 C28 44.48 28 62.96 28 82 C33.053125 82.04125 38.10625 82.0825 43.3125 82.125 C45.66822144 82.15231201 45.66822144 82.15231201 48.0715332 82.18017578 C65.34296303 82.2660226 65.34296303 82.2660226 80 74 C86.16223895 66.9649976 88.3538377 59.81300325 87.9375 50.5625 C86.9245059 42.24896219 83.50447686 35.58866933 77.0390625 30.25390625 C70.74933934 26.38608798 65.82845572 25.57239834 58.56640625 25.70703125 C57.78712769 25.71005249 57.00784912 25.71307373 56.20495605 25.71618652 C53.32400055 25.73175471 50.44323545 25.77363776 47.5625 25.8125 C41.106875 25.874375 34.65125 25.93625 28 26 Z " fill="#FFFFFF" transform="translate(16,32)"/>
<path d="M0 0 C14.85 0 29.7 0 45 0 C45 56.76 45 113.52 45 172 C30.15 172 15.3 172 0 172 C0 115.24 0 58.48 0 0 Z " fill="#FFFFFF" transform="translate(1225,28)"/>
<path d="M0 0 C9.24 0 18.48 0 28 0 C28.06794184 15.53463937 28.12311196 31.06920422 28.15543652 46.60395241 C28.17084994 53.81837948 28.19183255 61.03270711 28.22631836 68.24707031 C28.25639125 74.54130545 28.27561505 80.8354685 28.28226548 87.1297735 C28.28614781 90.45700795 28.29677232 93.78387428 28.31719017 97.11107254 C28.55294804 137.14339631 28.55294804 137.14339631 14.875 151.8125 C-0.23898674 165.74058127 -16.86808918 167.89557412 -36.59765625 167.37890625 C-50.81722582 166.72122281 -64.60585786 161.64743043 -74.46484375 150.96484375 C-82 141.32061069 -82 141.32061069 -82 136 C-80.02807617 134.45019531 -80.02807617 134.45019531 -77.29296875 132.828125 C-76.31392578 132.24675781 -75.33488281 131.66539062 -74.32617188 131.06640625 C-73.29041016 130.46699219 -72.25464844 129.86757812 -71.1875 129.25 C-70.16333984 128.63511719 -69.13917969 128.02023438 -68.08398438 127.38671875 C-62.36691481 124.03520387 -62.36691481 124.03520387 -60 123 C-56.48662263 124.17112579 -56.50388003 124.56069576 -54.9375 127.6875 C-51.6892203 133.19373023 -46.22548776 136.76528307 -40.09838867 138.55566406 C-31.41380667 140.39463314 -20.00764186 140.27172646 -11.98046875 136.3203125 C-5.55080117 132.03386745 -2.71930472 126.38637305 -1 119 C-0.58520691 115.01418185 -0.56230706 111.05942712 -0.56762695 107.05444336 C-0.5574353 105.89245422 -0.54724365 104.73046509 -0.53674316 103.53326416 C-0.50671449 99.71874099 -0.49736241 95.90446938 -0.48828125 92.08984375 C-0.47142706 89.43467954 -0.45341993 86.77954812 -0.43388367 84.12440491 C-0.39035547 77.86672959 -0.36172484 71.60908005 -0.33856028 65.35129982 C-0.31143484 58.22176703 -0.26752817 51.09236772 -0.22227156 43.96293056 C-0.12962147 29.30868768 -0.06006587 14.65441375 0 0 Z " fill="#FFFFFF" transform="translate(544,32)"/>
<path d="M0 0 C5.24805012 4.08315112 10.39983653 8.52370964 11.70703125 15.328125 C12.58364604 25.13525291 12.43569077 32.55775583 6.12890625 40.25390625 C1.38420667 45.41536999 -2.79200222 48.01518944 -9.7890625 48.640625 C-19.85107936 48.95973753 -25.74175081 47.78475702 -33.10546875 41.015625 C-39.45054171 34.1055798 -39.85487952 28.15216362 -39.63671875 18.92578125 C-38.92594441 11.48688163 -35.54622667 6.78984297 -30.1171875 1.8046875 C-22.22673689 -4.58201557 -8.71293581 -5.39101039 0 0 Z " fill="#FFFFFF" transform="translate(387.29296875,89.671875)"/>
</svg>
